<?xml version="1.0" standalone="no"?>
<!DOCTYPE svg PUBLIC "-//W3C//DTD SVG 20010904//EN"
 "http://www.w3.org/TR/2001/REC-SVG-20010904/DTD/svg10.dtd">
<svg version="1.0" xmlns="http://www.w3.org/2000/svg"
 width="500.000000pt" height="500.000000pt" viewBox="0 0 500.000000 500.000000"
 preserveAspectRatio="xMidYMid meet">

<g transform="translate(0.000000,500.000000) scale(0.100000,-0.100000)"
fill="#000000" stroke="none">
<path d="M2634 4300 c-62 -36 -149 -127 -170 -175 -8 -20 -19 -59 -24 -86 -7
-34 -21 -64 -45 -92 -24 -28 -35 -50 -35 -73 0 -28 -8 -39 -60 -79 l-60 -46
-1 -62 c-1 -34 -1 -65 0 -70 0 -4 -2 -6 -6 -6 -20 3 -25 -2 -14 -14 9 -11 3
-18 -29 -32 -22 -10 -43 -15 -47 -12 -3 4 1 7 11 7 9 0 14 5 11 10 -6 10 7 14
35 10 12 -1 12 1 3 11 -9 9 -17 9 -37 -5 -38 -24 -85 -20 -146 14 -30 17 -62
33 -72 36 -9 3 -19 21 -22 39 -6 28 -15 36 -77 65 -59 27 -79 32 -122 28 -61
-5 -147 -54 -165 -93 -8 -18 -12 -115 -12 -310 l0 -284 -34 -63 c-51 -94 -80
-206 -80 -316 -1 -57 3 -95 10 -100 6 -4 19 -41 28 -82 20 -90 84 -225 142
-300 81 -105 204 -214 299 -267 215 -119 398 -162 648 -150 143 7 217 22 348
71 247 92 437 257 547 473 64 126 76 179 76 333 0 128 -1 138 -27 187 -30 59
-31 63 -16 63 5 0 7 -5 3 -12 -4 -6 -3 -8 4 -5 13 9 4 47 -19 72 -20 22 -23
43 -21 129 l2 59 22 -28 c29 -38 76 -55 148 -55 91 0 167 48 194 124 10 30
-12 93 -47 127 -85 85 -217 91 -298 13 l-26 -25 -16 24 c-8 13 -52 43 -96 66
l-81 42 -56 -25 -56 -26 -97 50 c-108 56 -268 130 -282 130 -5 0 -9 36 -9 79
l0 79 -49 36 c-41 29 -53 45 -72 96 -14 39 -33 70 -51 83 -32 24 -34 35 -13
104 49 164 221 245 456 213 149 -20 271 -96 327 -205 22 -43 26 -63 26 -145 1
-82 -3 -103 -25 -150 -32 -70 -77 -121 -140 -162 -27 -17 -49 -34 -49 -38 0
-3 13 -14 30 -23 22 -14 34 -15 49 -8 36 20 122 126 154 191 30 63 32 70 31
190 0 149 -15 193 -93 269 -88 86 -207 123 -392 123 -169 -1 -292 -52 -370
-156 -44 -59 -79 -158 -79 -226 0 -53 -12 -64 -31 -28 -20 36 -2 144 36 223
38 79 87 131 160 169 27 14 43 26 35 26 -8 0 -38 -14 -66 -30z m-123 -420 c13
0 31 7 41 17 10 9 18 11 18 5 0 -10 -28 -35 -66 -58 -18 -11 -18 -13 -2 -30
16 -18 16 -21 0 -41 -12 -15 -30 -22 -62 -25 -44 -3 -45 -2 -48 30 -2 18 3 40
10 49 7 9 11 26 10 39 -5 37 5 44 43 28 19 -8 44 -14 56 -14z m-696 -151 c36
-11 65 -25 65 -29 0 -5 -20 -23 -44 -40 l-45 -30 -3 -215 c-2 -179 -6 -217
-18 -225 -24 -16 -34 -6 -37 36 -1 22 -9 44 -19 51 -26 19 -74 -5 -74 -38 0
-11 -4 -19 -9 -19 -7 0 -17 -38 -25 -92 -1 -3 -3 -9 -6 -11 -3 -3 -5 123 -5
281 l0 286 55 33 c65 39 80 40 165 12z m538 -13 c68 -50 232 -58 306 -15 36
21 52 19 32 -5 -14 -17 -80 -42 -132 -51 -31 -5 -36 -8 -32 -29 4 -20 0 -24
-29 -29 -42 -8 -103 4 -154 29 -31 15 -41 27 -48 56 -7 27 -6 41 4 52 16 20
15 20 53 -8z m139 -180 c58 -1 71 -3 52 -10 -19 -6 -25 -14 -22 -30 4 -19 1
-21 -28 -18 -45 5 -100 -15 -124 -45 -15 -19 -20 -41 -20 -84 0 -50 4 -63 28
-90 24 -27 36 -32 95 -36 l67 -6 35 37 c38 40 41 41 24 2 -7 -13 -25 -30 -41
-37 -54 -22 -73 -79 -48 -145 l11 -27 -70 5 c-47 4 -83 13 -112 29 l-44 24 -3
247 -2 247 62 -31 c52 -27 73 -31 140 -32z m-470 -6 c168 -60 218 -82 218 -96
0 -39 -70 -18 -312 89 -58 26 -75 47 -39 47 11 0 70 -18 133 -40z m-62 -81 c0
-5 -4 -9 -10 -9 -5 0 -10 7 -10 16 0 8 5 12 10 9 6 -3 10 -10 10 -16z m545
-25 c19 -8 45 -55 45 -82 0 -25 -39 -60 -78 -71 -28 -8 -34 -6 -52 16 -55 70
6 167 85 137z m809 -20 c79 -22 84 -28 46 -50 -26 -16 -30 -23 -24 -44 4 -14
6 -32 6 -40 -1 -8 -3 -87 -5 -175 -5 -160 -19 -239 -48 -267 -9 -8 -39 -13
-76 -13 -35 0 -64 -4 -66 -10 -2 -5 -7 40 -11 102 -4 62 -6 116 -3 120 2 4 1
78 -3 163 -5 111 -4 159 4 167 10 11 103 61 115 62 3 1 32 -6 65 -15z m-1272
-53 c167 -58 188 -68 188 -92 0 -13 -5 -19 -12 -16 -7 3 -78 31 -158 62 -148
58 -196 85 -152 85 12 0 72 -18 134 -39z m878 -5 c164 -63 170 -66 170 -93 0
-12 -2 -23 -4 -23 -5 0 -220 91 -283 120 -24 11 -43 24 -43 30 0 19 46 10 160
-34z m736 -27 c44 -11 94 -56 94 -84 0 -56 -82 -113 -142 -100 -45 10 -66 25
-89 62 -38 61 -8 105 89 132 2 1 23 -4 48 -10z m-1669 -105 c163 -54 253 -98
253 -123 0 -12 -2 -21 -4 -21 -2 0 -48 19 -102 43 -54 24 -138 58 -186 77 -49
19 -88 39 -88 47 0 18 7 17 127 -23z m897 -29 c155 -58 206 -84 206 -106 0
-22 -18 -25 -45 -5 -11 7 -56 28 -100 45 -44 18 -95 41 -113 52 -18 10 -40 19
-48 19 -8 0 -14 7 -14 15 0 21 9 19 114 -20z m-1247 3 c-3 -8 -6 -5 -6 6 -1
11 2 17 5 13 3 -3 4 -12 1 -19z m108 -106 c-4 -4 -10 -1 -13 7 -4 11 -6 11
-13 0 -8 -12 -11 -11 -19 1 -9 13 -10 13 -11 0 -1 -8 -1 -18 0 -22 2 -17 -8
-6 -23 22 -14 29 -14 30 8 30 12 0 31 6 42 14 17 14 20 12 28 -15 5 -16 5 -33
1 -37z m1089 -47 c84 -31 213 -96 246 -123 20 -16 23 -23 13 -33 -10 -10 -18
-9 -40 7 -16 12 -68 39 -118 61 -144 65 -185 87 -185 101 0 17 8 16 84 -13z
m-381 -42 c51 -12 76 -13 105 -5 20 6 48 14 62 18 45 12 8 -12 -44 -30 -90
-29 -226 -11 -226 30 0 11 5 14 18 9 9 -3 47 -13 85 -22z m-143 -40 c-1 -5
-23 -18 -51 -31 -27 -13 -47 -28 -44 -33 4 -5 -1 -6 -10 -3 -11 5 -14 2 -9
-10 5 -12 2 -15 -12 -10 -16 5 -17 4 -4 -6 13 -9 12 -10 -5 -7 -11 2 -36 -5
-56 -14 -47 -23 -139 -58 -139 -53 0 2 30 19 68 38 37 19 105 57 152 85 81 48
110 60 110 44z m503 -60 c56 -31 138 -76 182 -100 99 -54 101 -56 82 -83 -14
-20 -15 -20 -20 -1 -2 10 -15 24 -28 31 -24 11 -24 11 1 -9 l25 -20 -40 5
c-66 8 -165 64 -165 93 0 6 -8 20 -17 30 -14 17 -19 18 -36 6 -18 -12 -22 -12
-34 3 -8 9 -11 11 -7 3 4 -9 2 -12 -7 -9 -21 7 -61 108 -43 108 3 0 51 -26
107 -57z m-336 21 c56 -5 90 -2 121 9 48 17 64 6 36 -24 -32 -35 -83 -51 -148
-46 -48 4 -56 3 -45 -8 8 -7 35 -16 60 -19 37 -6 50 -3 72 14 37 29 35 11 -7
-87 -18 -44 -37 -93 -41 -111 -11 -51 -21 -46 -45 21 -12 34 -45 107 -71 162
-27 56 -49 104 -49 108 0 4 9 3 20 -3 11 -6 55 -13 97 -16z m233 -39 c0 -8 -2
-15 -4 -15 -2 0 -6 7 -10 15 -3 8 -1 15 4 15 6 0 10 -7 10 -15z m-478 -12 c-5
-10 -7 -23 -5 -29 4 -13 -51 -24 -67 -14 -10 6 26 29 43 26 5 0 13 7 18 17 6
9 12 17 15 17 3 0 1 -8 -4 -17z m585 -39 c-3 -3 -12 -4 -19 -1 -8 3 -5 6 6 6
11 1 17 -2 13 -5z m-147 -41 c11 -17 11 -17 6 0 -4 12 -2 17 6 14 7 -2 12 -13
11 -23 -1 -10 3 -21 8 -25 6 -3 12 -18 13 -32 2 -17 -1 -24 -8 -20 -6 4 -5 0
2 -9 8 -10 9 -19 4 -22 -6 -3 -17 5 -25 18 -9 12 -29 29 -46 36 -35 14 -37 21
-15 55 19 30 29 31 44 8z m-649 -93 c30 -5 92 -11 139 -13 108 -6 125 -13 126
-55 3 -49 29 -81 91 -109 111 -51 278 -24 324 51 10 17 19 26 19 20 0 -6 -14
-29 -31 -50 l-31 -39 34 -8 c18 -5 53 -17 78 -27 25 -11 67 -21 93 -23 42 -4
89 -29 76 -41 -2 -2 -62 -36 -134 -76 -71 -40 -151 -85 -176 -100 -25 -15 -69
-33 -97 -40 -59 -15 -52 -18 -328 131 -90 49 -167 89 -169 89 -8 0 -286 150
-329 178 l-40 25 23 18 c13 11 35 19 50 19 15 0 43 14 65 32 54 45 101 59 136
42 15 -8 52 -18 81 -24z m-181 -362 c0 -5 -4 -8 -10 -8 -5 0 -10 10 -10 23 0
18 2 19 10 7 5 -8 10 -18 10 -22z m1435 -25 c-16 -13 -47 -35 -68 -49 -29 -19
-35 -27 -25 -37 6 -7 25 -14 42 -15 16 -2 32 -5 35 -7 10 -11 -80 -103 -147
-152 -85 -61 -245 -127 -377 -155 -125 -26 -346 -26 -471 0 -200 43 -388 143
-499 266 -71 79 -81 95 -59 92 8 -1 20 -9 25 -17 7 -12 9 -12 9 1 0 12 2 12 9
2 4 -7 23 -15 42 -17 19 -3 28 -2 21 1 -6 3 -10 9 -7 14 3 5 -8 18 -25 30 -16
12 -30 25 -30 29 0 9 416 -203 524 -266 89 -52 201 -86 255 -79 41 6 212 83
291 132 31 18 231 124 360 190 25 12 61 34 80 47 44 31 55 24 15 -10z"/>
<path d="M1631 3547 c-33 -41 -18 -140 24 -159 56 -25 113 23 101 86 -12 65
-92 112 -125 73z m79 -46 c16 -31 12 -36 -25 -38 -28 -2 -35 1 -35 15 0 39 42
55 60 23z m-4 -87 c-22 -16 -52 -18 -60 -5 -3 5 6 9 20 9 14 0 30 4 37 11 6 6
13 8 16 5 3 -3 -3 -12 -13 -20z"/>
<path d="M2446 3374 c-18 -17 -19 -24 -8 -40 15 -24 50 -26 71 -5 27 27 26 35
-4 49 -34 16 -40 15 -59 -4z"/>
<path d="M3177 3182 c-21 -23 -22 -100 -2 -126 21 -27 91 -38 115 -17 53 45 5
161 -68 161 -16 0 -36 -8 -45 -18z m81 -38 c28 -19 32 -77 5 -67 -10 3 -24 13
-30 21 -11 14 -13 13 -13 -5 0 -25 25 -47 42 -37 11 6 11 4 0 -7 -16 -17 -42
-3 -60 35 -12 23 -11 31 2 52 19 28 24 29 54 8z"/>
<path d="M3202 2948 c-18 -18 -15 -53 6 -71 33 -30 72 -14 72 29 0 43 -50 70
-78 42z"/>
<path d="M3566 3264 c-22 -21 -20 -37 7 -62 30 -28 80 -29 107 -2 11 11 20 25
20 30 0 6 -9 19 -20 30 -25 25 -91 27 -114 4z"/>
<path d="M2770 2886 c0 -2 7 -7 16 -10 8 -3 12 -2 9 4 -6 10 -25 14 -25 6z"/>
<path d="M1844 2635 c-13 -33 34 -48 78 -24 21 11 21 12 3 25 -25 18 -74 18
-81 -1z"/>
<path d="M2472 2339 c-17 -6 -22 -15 -20 -31 2 -19 10 -24 44 -26 29 -2 45 2
55 14 12 14 10 19 -10 35 -26 21 -35 22 -69 8z"/>
<path d="M1285 3395 c-52 -18 -112 -82 -120 -129 -11 -55 27 -125 85 -153 108
-55 250 -7 281 96 40 134 -98 238 -246 186z m106 -75 c38 -11 73 -42 83 -76
10 -32 -32 -87 -78 -102 -138 -45 -221 125 -85 174 43 16 38 16 80 4z"/>
<path d="M1307 3262 c-23 -25 -21 -48 5 -66 43 -31 108 -9 108 36 0 43 -82 65
-113 30z"/>
<path d="M3991 3210 c-2 -47 -47 -125 -97 -169 -26 -23 -81 -58 -121 -77 -40
-20 -73 -41 -73 -47 0 -7 5 -28 10 -47 23 -81 32 -210 20 -316 -6 -58 -13
-111 -16 -118 -3 -8 9 -16 30 -23 43 -13 40 -19 57 133 l12 111 46 34 c59 45
130 137 142 186 11 47 11 264 0 318 -6 28 -9 32 -10 15z"/>
<path d="M991 3130 c0 -42 18 -264 23 -288 7 -31 58 -88 128 -143 l57 -44 1
-75 c2 -121 12 -165 35 -165 18 0 20 5 15 60 -14 166 1 349 35 436 4 11 -3 19
-22 28 -56 25 -160 92 -188 121 -21 21 -31 27 -36 18 -5 -8 -15 3 -28 32 -17
36 -21 40 -20 20z"/>
<path d="M1300 2274 c-92 -33 -137 -75 -147 -138 -23 -143 155 -247 300 -177
74 36 104 90 92 168 -7 49 -47 98 -103 127 -35 18 -116 29 -142 20z m109 -95
c58 -20 80 -103 40 -152 -48 -63 -169 -54 -205 15 -29 56 -13 111 39 133 39
17 84 19 126 4z"/>
<path d="M1297 2132 c-38 -42 -4 -102 56 -102 40 0 67 25 67 63 0 50 -88 78
-123 39z"/>
<path d="M3553 2259 c-23 -11 -58 -38 -78 -60 -31 -35 -35 -45 -35 -97 0 -100
59 -159 168 -169 179 -16 302 167 190 285 -18 19 -47 41 -65 48 -48 21 -131
18 -180 -7z m182 -99 c75 -70 14 -180 -100 -180 -40 0 -52 5 -81 34 -53 53
-46 127 14 161 41 23 135 15 167 -15z"/>
<path d="M3598 2145 c-38 -21 -46 -59 -21 -93 30 -40 75 -41 113 -3 34 34 37
50 13 80 -24 28 -71 35 -105 16z"/>
<path d="M3881 2180 c-2 -23 -3 -23 -10 -5 -6 13 -9 -3 -10 -48 -2 -109 -30
-151 -136 -198 -46 -21 -170 -26 -181 -7 -3 4 -13 8 -22 8 -15 0 -15 -2 -2
-10 8 -5 11 -10 5 -10 -17 0 -38 17 -32 26 3 5 -14 10 -36 11 -23 1 -82 5
-130 7 -49 3 -95 10 -102 16 -9 8 -15 6 -20 -7 -5 -10 -7 -22 -6 -26 1 -5 -3
-6 -9 -2 -8 5 -7 11 1 22 7 8 -8 2 -33 -14 -32 -19 -43 -32 -36 -40 6 -7 5
-14 -3 -19 -7 -4 -9 -3 -6 3 4 6 0 13 -8 17 -8 3 -14 0 -12 -6 1 -7 -5 -12
-13 -13 -8 0 -49 -14 -91 -32 -41 -18 -112 -43 -157 -56 -45 -13 -84 -26 -88
-29 -3 -4 4 -4 16 -1 20 5 19 1 -14 -46 -20 -28 -34 -56 -31 -61 4 -6 2 -10
-4 -10 -5 0 -12 6 -14 13 -3 7 -6 5 -6 -5 -1 -10 3 -18 7 -18 9 0 12 -22 14
-92 2 -61 -32 -107 -106 -143 -50 -24 -63 -26 -149 -23 -64 2 -92 6 -87 13 6
7 2 11 -10 11 -10 0 -16 -4 -14 -8 3 -4 0 -9 -5 -9 -20 -3 -26 -5 -44 -15 -15
-9 -13 -12 18 -27 20 -10 41 -14 47 -11 7 4 8 2 4 -4 -10 -17 70 -37 149 -36
57 0 83 6 140 33 39 17 85 46 104 64 45 42 81 125 88 202 l6 62 186 91 c102
51 206 103 231 117 55 31 88 31 142 4 115 -59 210 -72 306 -44 129 39 230 142
248 254 8 51 -3 102 -18 80 -7 -11 -9 -9 -5 9 3 14 0 22 -9 22 -8 0 -11 -6 -8
-15 4 -8 1 -15 -5 -15 -6 0 -11 8 -12 18 0 14 -2 14 -8 -3 -8 -19 -9 -18 -13
5 l-5 25 -2 -25z m-719 -262 c-7 -7 -12 -8 -12 -2 0 14 12 26 19 19 2 -3 -1
-11 -7 -17z m-822 -548 c-18 -12 -43 -13 -36 -2 2 4 15 8 28 9 18 2 19 0 8 -7z"/>
<path d="M3986 2049 c-22 -112 -167 -232 -312 -258 -76 -14 -139 -3 -245 44
-44 19 -88 35 -98 35 -9 0 -46 -17 -82 -38 -35 -21 -134 -72 -220 -112 l-157
-74 -6 -60 c-7 -74 -54 -174 -99 -212 -18 -15 -66 -43 -107 -63 -70 -34 -81
-36 -171 -36 -94 0 -98 1 -183 44 -98 49 -122 74 -173 174 -29 59 -34 77 -29
111 l7 42 -128 59 c-70 33 -167 84 -214 112 -48 29 -96 53 -106 53 -11 0 -59
-16 -109 -36 -118 -49 -212 -56 -307 -25 -69 23 -138 67 -172 110 -47 58 -47
58 -40 31 3 -15 -4 -7 -19 20 l-25 45 0 -70 c0 -98 14 -196 34 -239 30 -63 98
-129 171 -166 66 -34 73 -35 174 -34 89 0 115 4 174 27 37 15 81 27 96 27 16
0 59 -17 97 -39 92 -52 335 -171 349 -171 13 0 24 -32 24 -73 0 -42 27 -92 82
-152 77 -85 207 -145 312 -145 138 0 301 92 362 204 9 16 20 56 24 88 5 33 10
61 12 62 2 1 68 34 148 74 80 41 179 92 221 115 85 46 76 47 214 -3 133 -49
333 -3 427 98 80 85 93 125 96 296 3 142 -7 207 -22 135z"/>
<path d="M2040 1830 c8 -5 20 -10 25 -10 6 0 3 5 -5 10 -8 5 -19 10 -25 10 -5
0 -3 -5 5 -10z"/>
<path d="M2010 1809 c0 -5 5 -7 10 -4 6 3 10 8 10 11 0 2 -4 4 -10 4 -5 0 -10
-5 -10 -11z"/>
<path d="M1990 1775 c8 -10 7 -14 -2 -18 -8 -4 -7 -6 4 -6 10 -1 22 -10 28
-22 7 -12 18 -18 26 -15 8 3 13 2 10 -3 -3 -5 8 -8 24 -7 27 1 29 2 13 13 -12
10 -13 13 -3 13 28 0 -14 29 -63 44 -38 11 -46 12 -37 1z"/>
<path d="M2408 1753 c7 -3 16 -2 19 1 4 3 -2 6 -13 5 -11 0 -14 -3 -6 -6z"/>
<path d="M2424 1717 c-44 -17 -101 -67 -113 -100 -42 -110 49 -217 184 -217
166 0 259 146 163 256 -60 68 -152 92 -234 61z m136 -90 c13 -7 34 -27 47 -45
18 -27 20 -38 12 -60 -24 -63 -87 -91 -158 -72 -68 18 -97 75 -69 136 22 47
112 69 168 41z"/>
<path d="M2444 1577 l-29 -25 21 -29 c38 -51 144 -35 144 22 0 30 -21 46 -68
52 -31 4 -44 0 -68 -20z"/>
<path d="M2706 1706 c6 -15 4 -17 -6 -11 -9 6 -11 4 -5 -4 5 -9 10 -10 18 -2
8 8 7 14 -2 24 -10 10 -11 8 -5 -7z"/>
<path d="M2138 1682 c4 -11 1 -13 -8 -7 -9 5 -11 4 -6 -3 10 -16 14 -15 25 6
7 14 6 19 -4 19 -7 0 -11 -7 -7 -15z"/>
</g>
</svg>
